<?xml version="1.0" encoding="UTF-8"?>
<svg id="Layer_2" data-name="Layer 2" xmlns="http://www.w3.org/2000/svg" viewBox="0 0 22.28 16.64">
  <defs>
    <style>
      .cls-1 {
        fill: #3b2a53;
      }
    </style>
  </defs>
  <g id="Layer_1-2" data-name="Layer 1">
    <path class="cls-1" d="m22.15,8.11c-.3-.44-.68-.85-.9-1.34-.66-1.42-1.48-1.92-3.03-1.71-.66.09-1.3.27-1.95.41-.44.11-1.12.29-1.34.18-2.23-1.09-4.61-1.62-6.14-3.67C7.13-.24,5.42-.57,3.1.87.81,2.29-.71,7.1.33,9.67c.14.33.3.65.44.98.09.22.21.44.23.67.18,1.64,1.15,2.78,2.59,3.3,2.07.75,4.11,1.61,6.44,1.57,2.25-.04,4.53.56,6.76.42,1.55-.1,3.09-.89,4.56-1.54.44-.19.85-.94.88-1.46.09-1.26-.06-2.53-.1-3.8-.02-.6,0-1.2,0-1.71Zm-10.81,5.36c-.11.54-.91.83-1.78.66s-1.5-.76-1.39-1.3c.11-.54.91-.83,1.78-.66.88.18,1.5.76,1.39,1.3Z"/>
  </g>
</svg>