<?xml version="1.0" encoding="UTF-8"?>
<svg id="Layer_2" data-name="Layer 2" xmlns="http://www.w3.org/2000/svg" viewBox="0 0 22.44 14.16">
  <defs>
    <style>
      .cls-1 {
        fill: #3b2a53;
      }
    </style>
  </defs>
  <g id="Layer_1-2" data-name="Layer 1">
    <path class="cls-1" d="m20.86,1.34c-1.94-.28-3.46,1.1-5.61,1.08-3.87-.51-5.67-.63-8.6-.88C5.22-.05,3.44-.47,2.24.57.94,1.7-.04,3.18,0,4.91c.03,1.2.75,2.37,1.06,3.58.37,1.42.9,2.2,1.83,3.56,1.53,1.46,2.03,2.34,3.99,2.05,1.62-.24,3.19-.86,4.79-1.31.32-.11.63-.23.94-.34.36-.22.71-.49,1.1-.67,2.05-.98,4.14-1.88,6.17-2.91,2.96-1.51,3.43-5.21.98-7.54Zm-8.06,8.41c-.11.54-.91.83-1.78.66-.88-.18-1.5-.76-1.39-1.3.11-.54.91-.83,1.78-.66.88.18,1.5.76,1.39,1.3Z"/>
  </g>
</svg>