<?xml version="1.0" encoding="UTF-8"?>
<svg id="Layer_2" data-name="Layer 2" xmlns="http://www.w3.org/2000/svg" viewBox="0 0 27.32 20.66">
  <defs>
    <style>
      .cls-1 {
        fill: #3b2a53;
      }
    </style>
  </defs>
  <g id="Layer_1-2" data-name="Layer 1">
    <path class="cls-1" d="m25.56,2.95c-.52-.44-1.34-.73-2.01-.71-.85.03-1.85.24-2.48.75-1.73,1.41-3.42,1.41-5.49.82-1.71-.49-3.62-.31-5.64-.44-.72-.73-1.44-1.6-2.31-2.28C6.34.08,4.89-.37,3.26.35.96,1.38-.17,3.38.02,6.21c.15,2.22.41,4.44.46,6.67.05,2.18.6,4.02,2.14,5.69,1.97,2.13,4.66,2.66,7.29,1.46,1.78-.81,3.78-1.14,5.68-1.68.07-.02.16.03.23.03.94-.05,1.88-.04,2.81-.16.9-.12,1.79-.36,2.68-.54.18.26,4.29-2.96,4.26-2.99.4-1.13.79-2.08,1.06-3.06.42-1.51.67-3,.67-4.64,0-1.8-.55-3.01-1.76-4.02Zm-9.47,11.7c-.86,0-1.55-.7-1.55-1.55s.7-1.55,1.55-1.55,1.55.7,1.55,1.55-.7,1.55-1.55,1.55Z"/>
  </g>
</svg>