<?xml version="1.0" encoding="UTF-8"?>
<svg id="Layer_2" data-name="Layer 2" xmlns="http://www.w3.org/2000/svg" viewBox="0 0 22.66 16.88">
  <defs>
    <style>
      .cls-1 {
        fill: #3b2a53;
      }
    </style>
  </defs>
  <g id="Layer_1-2" data-name="Layer 1">
    <path class="cls-1" d="m22.06,2.25c-.48-2.19-2.55-2.93-4.32-1.55-.74.58-1.8,2.37-2.47,3.01-.26.18-4.29.1-6.9,0-.44-.02-.85-.71-1.28-1.09-1.75-1.51-3.64-1.96-5.66-.36C.6,2.92-.14,3.57.02,4.71c.16,1.1.32,2.24.77,3.23.8,1.76,1.97,3.36,2.7,5.14,1.04,2.52,2.72,3.73,5.46,3.79,1.09.03,2.05.05,2.92-.65,1.19-.97,2.39-1.94,3.57-2.91.43-.36,4-3.12,5.7-4.39.93-.69,1.54-1.5,1.5-2.56-.05-1.38-.31-2.76-.61-4.12Zm-8.59,8.52c-.11.54-.91.83-1.78.66-.88-.18-1.5-.76-1.39-1.3.11-.54.91-.83,1.78-.66.88.18,1.5.76,1.39,1.3Z"/>
  </g>
</svg>