<?xml version="1.0" encoding="UTF-8"?>
<svg id="Layer_2" data-name="Layer 2" xmlns="http://www.w3.org/2000/svg" viewBox="0 0 27.95 24.25">
  <defs>
    <style>
      .cls-1 {
        fill: #3b2a53;
      }
    </style>
  </defs>
  <g id="Layer_1-2" data-name="Layer 1">
    <path class="cls-1" d="m24.46,5.88c-.78.05-1.54.51-2.35.8-.54.13-1.95.57-3,.25-2.55-.77-5.08-1.64-7.63-2.4-1.49-.45-2.79-1.03-3.57-2.54C7.18.55,5.88-.2,4.24.05,2.55.31,1.26,1.24.8,2.96.44,4.31.1,5.69.02,7.07c-.17,2.93.49,5.56,3.27,7.2.86.51,1.66,1.1,2.51,1.63,1.52.94,3.05,1.85,4.58,2.78.81.49,1.93.81,2.34,1.54.79,1.4,2.12,2.01,3.3,2.85,2.16,1.53,5.38,1.86,7.56-.65.52-.6,1.09-1.16,1.5-1.59.37-1.18,1.04-3.82,1.1-4.13.28-1.31.62-2.62.95-3.92.28-1.12.74-2.22.81-3.35.15-2.37-1.15-3.68-3.48-3.54Zm-11.03,9.8c-.86,0-1.55-.7-1.55-1.55s.7-1.55,1.55-1.55,1.55.7,1.55,1.55-.7,1.55-1.55,1.55Z"/>
  </g>
</svg>