<?xml version="1.0" encoding="UTF-8"?>
<svg id="Layer_2" data-name="Layer 2" xmlns="http://www.w3.org/2000/svg" viewBox="0 0 21.19 15.67">
  <defs>
    <style>
      .cls-1 {
        fill: #3b2a53;
      }
    </style>
  </defs>
  <g id="Layer_1-2" data-name="Layer 1">
    <path class="cls-1" d="m15.89,2.44c-.62.07-1.24.2-1.87.3-.61-.09-1.1-.41-1.52-.47-1.49-.23-2.97-.49-4.45-.78-.49-.09-.99-.24-1.41-.49C4.55-.27,3.21-.34,1.8.83c-2.48,2.05-2.39,5.9.22,7.75,2.52,1.79,5.17,3.42,7.6,5.32,2.25,1.77,4.46,2.34,7.16,1.11,1.51-.68,2.91-1.43,3.43-3.04.5-1.54,1.08-3.19.97-4.75-.21-3.18-1.63-5.18-5.29-4.78Zm-6.29,7.94c-.86,0-1.55-.7-1.55-1.55s.7-1.55,1.55-1.55,1.55.7,1.55,1.55-.7,1.55-1.55,1.55Z"/>
  </g>
</svg>