<?xml version="1.0" encoding="UTF-8"?>
<svg id="Layer_2" data-name="Layer 2" xmlns="http://www.w3.org/2000/svg" viewBox="0 0 47.02 37.35">
  <defs>
    <style>
      .cls-1 {
        fill: #3b2a53;
      }
    </style>
  </defs>
  <g id="Layer_1-2" data-name="Layer 1">
    <path class="cls-1" d="m41.1,9.71c-2.33-.38-2.63.61-3.23,1.13-3.61-1.85-7.18-6.1-13.55-6.65-1.33-.19-2.21-.5-4.43-.91-2.9-.18-3.84-1.3-6.35-2.59l-7.39-.68c-1.23.3-2.19,1.12-2.6,2.32-.76,2.21-2.2,4.25-1.85,6.78.02.14-.08.3-.12.46-.5,1.92-1.12,3.82-1.48,5.77-.36,1.93.11,2.54,1.8,3.5,3.87,2.21,8.72,5.36,12.59,7.56,1.12.4.76.17,1.8.31,3.11,2.34,6.16,4.83,9.39,5.9,2.71,2.32,5.1,4,7.93,4.76.91-.35,1.83-.5,2.73-.72,1.36-.32,2.72-.63,4.05-1.05.53-.17,1.18-.49,1.42-.93.65-1.24,1.12-2.59,1.66-3.89.06.02.13.04.19.07-.08-.67-.17-1.35-.25-2.02.05.02.1.03.15.05.32-1.39.65-2.78.97-4.19,1.86-1.35,2.35-7.26,2.42-7.76.25-1.82.03-5.42-5.86-7.19Zm-16.13,10.72c-.81,0-1.46-.65-1.46-1.46s.65-1.46,1.46-1.46,1.46.65,1.46,1.46-.65,1.46-1.46,1.46Z"/>
  </g>
</svg>