<?xml version="1.0" encoding="UTF-8"?>
<svg id="Layer_2" data-name="Layer 2" xmlns="http://www.w3.org/2000/svg" viewBox="0 0 27.2 18.64">
  <defs>
    <style>
      .cls-1 {
        fill: #3b2a53;
      }
    </style>
  </defs>
  <g id="Layer_1-2" data-name="Layer 1">
    <path class="cls-1" d="m25.68,4.53c-.55-1.57-1.36-2.96-2.72-4-.89-.68-1.8-.74-2.61,0-1.18,1.06-2.57,1.25-4.02,1.06-2.5-.33-4.92-.03-7.36.49-1.53.33-2.85.58-4.44.39-.3-.57-.23-.87-.49-1.06C1.21.86-.43,2.82.1,5.74c.32,1.79.42,3.64.37,5.46-.07,2.56.75,4.69,2.57,6.46.83.81,1.83,1.15,2.97.91,1.66-.35,3.31-.77,4.96-1.17.02,0,2.13-.89,3.49-1.13-.01-.07,1.7-.52,2.12-.68.99-.38,1.91-.93,2.91-1.26,1.64-.54,3.34-.89,4.97-1.45,2.54-.88,3.37-3.04,2.28-5.54-.4-.91-.72-1.86-1.05-2.8Zm-12.08,7.89c-.86,0-1.55-.7-1.55-1.55s.7-1.55,1.55-1.55,1.55.7,1.55,1.55-.7,1.55-1.55,1.55Z"/>
  </g>
</svg>