<?xml version="1.0" encoding="UTF-8"?>
<svg id="Layer_2" data-name="Layer 2" xmlns="http://www.w3.org/2000/svg" viewBox="0 0 27.24 18.63">
  <defs>
    <style>
      .cls-1 {
        fill: #3b2a53;
      }
    </style>
  </defs>
  <g id="Layer_1-2" data-name="Layer 1">
    <path class="cls-1" d="m22.55,3.34c-1.72.72-1.76.78-3.7-.35-2.49-1.45-5.13-2.28-7.99-1.94-2.25.26-4.34.06-6.44-.83C3.13-.33.61.09.25,2.26-.07,4.15.04,6.12,0,8.05c-.04,1.98,1.21,3.12,2.76,4.01.79.46,1.6.9,2.45,1.26,2.32.98,4.66,1.89,6.99,2.85,1.74.72,3.43,1.57,5.2,2.19,2.33.82,4.33-.39,5.96-1.71,1.25-1.01,2.01-2.7,2.85-4.16,2.26-3.92.7-7.83-3.66-9.15Zm-9.58,7.53c-.86,0-1.55-.7-1.55-1.55s.7-1.55,1.55-1.55,1.55.7,1.55,1.55-.7,1.55-1.55,1.55Z"/>
  </g>
</svg>