<?xml version="1.0" encoding="UTF-8"?>
<svg id="Layer_2" data-name="Layer 2" xmlns="http://www.w3.org/2000/svg" viewBox="0 0 27.83 17.4">
  <defs>
    <style>
      .cls-1 {
        fill: #3b2a53;
      }
    </style>
  </defs>
  <g id="Layer_1-2" data-name="Layer 1">
    <path class="cls-1" d="m24.14,4.34c-.66.3-2.39.21-2.54.01-.82.11-2.29-.3-2.27-.53-2.67-1.8-5.53-2.93-8.81-2.91-1.39,0-2.77-.27-4.16-.4-.65-.06-1.3-.09-2.01-.15,0,.02-.02-.12-.04-.33C2.29-.19.82.8.26,2.43-.29,3.99,0,5.72,1.53,6.96c1.87,1.51,3.65,3.12,5.48,4.67,1.21,1.02,2.46,2,3.67,3.02,1.81,1.53,3.65,3.1,6.24,2.69,1.63-.26,3.26-.3,4.8-1.39,1.5-1.06,3.34-1.68,4.59-3.13,2.8-3.23,1.51-6.96-2.18-8.48Zm-11.78,6.62c-.86,0-1.55-.7-1.55-1.55s.7-1.55,1.55-1.55,1.55.7,1.55,1.55-.7,1.55-1.55,1.55Z"/>
  </g>
</svg>