<?xml version="1.0" encoding="UTF-8"?>
<svg id="Layer_2" data-name="Layer 2" xmlns="http://www.w3.org/2000/svg" viewBox="0 0 27.5 17.56">
  <defs>
    <style>
      .cls-1 {
        fill: #3b2a53;
      }
    </style>
  </defs>
  <g id="Layer_1-2" data-name="Layer 1">
    <path class="cls-1" d="m25.46.68c-.84-.63-1.84-.97-2.79-.35-1.6,1.05-3.26.88-4.95.43-3.76-1-7.28-.48-10.62,1.66-.5-.12-1.05-.23-1.58-.4-1.91-.61-3.85-.02-4.68,1.82C.28,5.1-.06,6.6,0,7.97c.06,1.31.49,2.8,1.27,3.83,1.37,1.82,3.03,3.45,4.77,4.93.69.59,1.89.85,2.85.82,1.19-.04,2.38-.48,3.53-.86,3.87-1.26,7.74-2.49,11.56-3.89,1.57-.57,2.73-1.77,2.99-3.55.16-1.06.1-2.16.34-3.19.52-2.27,0-4.01-1.85-5.39Zm-11.71,9.65c-.86,0-1.55-.7-1.55-1.55s.7-1.55,1.55-1.55,1.55.7,1.55,1.55-.7,1.55-1.55,1.55Z"/>
  </g>
</svg>