<?xml version="1.0" encoding="UTF-8"?>
<svg id="Layer_2" data-name="Layer 2" xmlns="http://www.w3.org/2000/svg" viewBox="0 0 33.23 39.85">
  <defs>
    <style>
      .cls-1 {
        fill: #3b2a53;
      }
    </style>
  </defs>
  <g id="Layer_1-2" data-name="Layer 1">
    <path class="cls-1" d="m30.73,12.12c-.56-.48-1.04-1.03-1.35-1.67-.52-1.07-.85-2.24-1.42-3.28-1.44-2.63-3.47-4.65-6.57-5.07L8.7.06C4.01-.48-.51,2.54.05,8c.24,2.34,3.05,13.87,3.23,17.51.13,2.68,1.47,4.76,3.64,6.42,1.21.93,2.4,2.01,3.22,3.32,4.89,7.82,11.03,3.4,11.65,2.93,1.21-.92,11.45-12,11.45-19.92,0-3.96-2.08-5.43-2.51-6.14Zm-15.16,3.73c-.86,0-1.55-.7-1.55-1.55s.7-1.55,1.55-1.55,1.55.7,1.55,1.55-.7,1.55-1.55,1.55Z"/>
  </g>
</svg>