<?xml version="1.0" encoding="UTF-8"?>
<svg id="Layer_2" data-name="Layer 2" xmlns="http://www.w3.org/2000/svg" viewBox="0 0 31.01 23.13">
  <defs>
    <style>
      .cls-1 {
        fill: #3b2a53;
      }
    </style>
  </defs>
  <g id="Layer_1-2" data-name="Layer 1">
    <path class="cls-1" d="m30.95,10.71l-.93-3.01c-.04-.14-.1-.26-.19-.38l-.77-1.09c-.08-.11-.17-.21-.27-.29l-1.74-1.36-.74-.39L6.33.03c-.2-.04-.4-.04-.59,0l-.6.14c-.2.05-.38.14-.54.27l-2.34,1.91c-.14.11-.26.25-.34.41-.11.22-.3.55-.46.71-.15.16-.25.38-.31.59-1.39,4.97-1.63,7.73-.09,10.54.08.15.19.29.33.4,1.56,1.31,4.44,2.13,5.44,2.42.21.06.39.18.55.33,2.36,2.27,7.13,3.16,7.62,3.24.03,0,.06.01.09.02l5.6,1.42,2.26.62c.38.11.79.04,1.12-.18l1.17-.78c.09-.06.19-.11.29-.15l2.53-.92c.25-.09.48-.26.64-.48l.54-.74c.28-.39.34-.89.15-1.33h0c-.15-.37-.14-.77.02-1.12l1.08-2.3c.06-.13.1-.27.12-.42l.4-3.39c.02-.19,0-.38-.05-.56Zm-16.99,6.65c-.86,0-1.55-.7-1.55-1.55s.7-1.55,1.55-1.55,1.55.7,1.55,1.55-.7,1.55-1.55,1.55Z"/>
  </g>
</svg>