<?xml version="1.0" encoding="UTF-8"?>
<svg id="Layer_2" data-name="Layer 2" xmlns="http://www.w3.org/2000/svg" viewBox="0 0 24.54 22.94">
  <defs>
    <style>
      .cls-1 {
        fill: #3b2a53;
      }
    </style>
  </defs>
  <g id="Layer_1-2" data-name="Layer 1">
    <path class="cls-1" d="m24.53,11.12c-.04-.24-.03-.49,0-.73.08-.72-6.44-8.23-6.88-8.55L13.36,0c-.24-.02-3.91.18-4.03.22-.1.03-4.95.62-5.12.7-.59.22-1.08.61-1.56.99-.67.54-1.01,1.31-1.3,2.1-.08.21-.19.42-.22.64-.03.23-.12.44-.2.65-.08.23-.16.46-.24.69-.14.43-.38.84-.36,1.31-.16.19-.03.46-.13.62-.14.22,0,.46-.1.63-.13.23-.09.46-.1.69,0,.11,0,.23,0,.34-.01.15,0,.76.03.85.23.66.56,1.28.97,1.84.27.38.52.77.84,1.13.2.23.45.44.61.7.4.64.91,1.2,1.35,1.8.28.38.64.72.81,1.18.02.06.07.12.11.18.25.33.54.63.74.99.13.23.31.41.5.58.12.11.33.14.45.25.22.19.44.29.73.28.18,0,.51-.02.72-.11.43.33.84.65,1.26.96.2.15.42.26.62.4.54.37,1.08.73,1.76.77.21.01.42.07.61.15.64.27,1.5.45,1.99.41.2.2.36.38.54.54.07.07.18.09.28.14.54.26,1.14.24,1.72.32.37.05.75-.06,1.13-.1.03,0,.06-.04.09-.05.29-.06.5-.25.74-.4.6-.36.96-.59,1.43-1.29.29-.43.45-.91.77-1.32.12-.15.22-.3.26-.51.04-.23.19-.44.3-.66-.19-.16-.08-.38-.11-.55.09-.13.17-.25.25-.37.22-.3.47-.59.64-.92.45-.86.86-1.75,1.35-2.59.24-.4.4-.84.58-1.27.11-.27.28-.54.31-.82.03-.32.19-.62.14-.96Zm-9.92,3.68c-.86,0-1.55-.7-1.55-1.55s.7-1.55,1.55-1.55,1.55.7,1.55,1.55-.7,1.55-1.55,1.55Z"/>
  </g>
</svg>