<?xml version="1.0" encoding="UTF-8"?>
<svg id="Layer_2" data-name="Layer 2" xmlns="http://www.w3.org/2000/svg" viewBox="0 0 26.2 20.78">
  <defs>
    <style>
      .cls-1 {
        fill: #3b2a53;
      }
    </style>
  </defs>
  <g id="Layer_1-2" data-name="Layer 1">
    <path class="cls-1" d="m23.57,2.15h-.66c-.46-.45-2.13-.69-2.37-.67C19.84,1.59,13.88.02,13.59.02c-.72,0-1.44-.07-2.14.11-.37.1-.76.14-1.1.33-.5.28-2.13,1.1-2.37,1.32-.45.4-2.65,2.29-3.24,2.9-.4.41-2.18,1.31-2.57,1.54-.52.31-.97.71-1.35,1.14-.03.11-.02.22-.07.28-.14.15-.2.33-.29.5C.02,9.06.01,9.05.01,9.99c0,.22-.04.46.02.67.12.4.28.78.47,1.15.32.61,2.8,4.92,2.84,5,.21.41.58.67.89.98.2.2.47.31.69.49.16.12.3.08.46.04.1-.03,2.7,1.3,3.16,1.46.48.18,1.26.49,1.71.49.47,0,.93,0,1.4,0,.07.15.13.29.21.45,1.28.33,2.83-.55,3.27-1.34.36-.03.69-.09.93-.37.06-.07.12-.16.2-.19.43-.2.77-.51,1.13-.8.38-.32.74-.66,1.11-.99.1-.09.22-.17.27-.28.32-.62.87-1.06,1.28-1.6.25-.34.56-.63.83-.95.14-.16.26-.34.38-.52.38-.55.76-1.11,1.13-1.67.22-.33.55-.59.68-1,.06-.19.22-.4.39-.5.38-.22.59-.62.95-.84.39-.24.65-.59.98-.89.38-.34.65-.73.73-1.27.1-.62.12-1-.13-1.56-.34-.74-1.18-3.46-2.42-3.77Zm-10.47,9.85c-.86,0-1.55-.7-1.55-1.55s.7-1.55,1.55-1.55,1.55.7,1.55,1.55-.7,1.55-1.55,1.55Z"/>
  </g>
</svg>