<?xml version="1.0" encoding="UTF-8"?>
<svg id="Layer_2" data-name="Layer 2" xmlns="http://www.w3.org/2000/svg" viewBox="0 0 28.79 31">
  <defs>
    <style>
      .cls-1 {
        fill: #3b2a53;
      }
    </style>
  </defs>
  <g id="Layer_1-2" data-name="Layer 1">
    <path class="cls-1" d="m28.01,17.33c-.42-.67-6.52-11.96-6.98-14.46-.28-.42-.58-.84-.94-1.18-.26-.25-.55-.48-.82-.73-.05-.05-.12-.06-.18-.1-.35-.2-1.28-.68-1.64-.87l-3.36.08c-.09,0-11.41,2.65-13.23,5.27-.18.26-.26.57-.39.85C.01,7.11.01,7.12,0,8.19c0,.28.04.54.13.79.09.27,1.43,2.09,1.5,2.36.11.42,9.25,16.56,9.74,17.04.46.45,2.22,1.48,2.58,1.65.57.28,1.77.96,4.45.96,1.62-.25,4.35-2.41,4.9-2.88.16-.13.35-.24.54-.32.53-.21.9-.68,1.43-.88.02,0,.01-.07.03-.1.42-.42,1.33-1.31,1.37-1.34.41-.29.99-1.42,1.05-1.47.18-.55.76-2.03.93-2.26.05-.34.12-.64.14-.94.02-.49-.45-2.96-.78-3.5Zm-13.61-.35c-.86,0-1.55-.7-1.55-1.55s.7-1.55,1.55-1.55,1.55.7,1.55,1.55-.7,1.55-1.55,1.55Z"/>
  </g>
</svg>