<?xml version="1.0" encoding="UTF-8"?>
<svg id="Layer_2" data-name="Layer 2" xmlns="http://www.w3.org/2000/svg" viewBox="0 0 30.7 22.07">
  <defs>
    <style>
      .cls-1 {
        fill: #3b2a53;
      }
    </style>
  </defs>
  <g id="Layer_1-2" data-name="Layer 1">
    <path class="cls-1" d="m30.44,11.68c-.09-.19-1.78-2.95-2.26-3.56-.19-.24-1.53-1.66-2.15-1.82-.57-.15-5.84-3.96-6.25-4.33,0,0-5.03-3.55-7.28-1.12-.31.34-7.75,8.57-7.78,8.59-.47.4-.58.57-.83,1.16-.05.11-1.32,1.47-1.49,1.73h-.26c-.13.14-.94.99-1.04,1.35-.08.28-3.55,4.98,2.35,6.14.32.06,14.77,2.05,15.26,2.17.39.09,2.04.12,2.42-.09.53.03,2.09-.7,2.43-.8.63-.19,2.99-1.62,3.5-2.15.32-.35,3.43-4.22,3.6-5.29.1-.65.1-1.34-.2-1.99Zm-14.37,3.9c-.86,0-1.55-.7-1.55-1.55s.7-1.55,1.55-1.55,1.55.7,1.55,1.55-.7,1.55-1.55,1.55Z"/>
  </g>
</svg>